<?xml version="1.0" encoding="utf-8"?>
<!-- Generator: Adobe Illustrator 19.2.1, SVG Export Plug-In . SVG Version: 6.00 Build 0)  -->
<svg version="1.1" id="layer" xmlns="http://www.w3.org/2000/svg" xmlns:xlink="http://www.w3.org/1999/xlink" x="0px" y="0px"
	 viewBox="0 0 652 652" style="enable-background:new 0 0 652 652;" xml:space="preserve">
<style type="text/css">
	.st0{fill:#F7618B;}
	.st1{fill:#FFFFFF;}
</style>
<path class="st0" d="M203.5,300.3v19.8h30.7c1,0,1.8,0.8,1.8,1.8v6.7c0,1-0.8,1.8-1.8,1.8h-30.7v25.8c0,1-0.8,1.8-1.8,1.8h-7.1
	c-1,0-1.8-0.8-1.8-1.8v-64.4c0-1,0.8-1.8,1.8-1.8h43.6c1,0,1.8,0.8,1.8,1.8v6.8c0,1-0.8,1.8-1.8,1.8H203.5z M570.9,291.8v64.4
	c0,1-0.8,1.8-1.8,1.8H562c-1,0-1.8-0.8-1.8-1.8v-3.8c-3.5,4.3-8.6,7-15.5,7c-12.8,0-21.9-10.9-21.9-25c0-13.9,9.1-25.1,21.9-25.1
	c6.9,0,12,2.8,15.5,7.1v-24.7c0-1,0.8-1.8,1.8-1.8h7.1C570.1,290,570.9,290.8,570.9,291.8z M321.2,343.6l7.3,1.4
	c0.7,0.1,1.2,0.9,0.9,1.6c-3.2,7.7-11,12.8-20.5,12.8c-14.4,0.1-23.9-10.6-23.9-24.9c0-14.1,9.2-25.1,23.2-25.1
	c13,0,21.3,9.3,21.3,22.5v3.2c0,1-0.8,1.8-1.8,1.8H295c1.2,8.1,6.5,12.9,13.9,12.9c4.5,0,8.3-2,10.4-5.5
	C319.7,343.9,320.4,343.5,321.2,343.6z M419.7,339.7l7.6,1.4c0.6,0.1,1,0.6,1,1.2c-0.3,10.6-7.5,17.1-17,17.1
	c-11.6,0-18.5-7.1-18.5-18.5v-20.7h-6.4c-1,0-1.8-0.8-1.8-1.8v-5.7c0-1,0.8-1.8,1.8-1.8h6.4v-12c0-1,0.8-1.8,1.8-1.8h7.1
	c1,0,1.8,0.8,1.8,1.8v12h21.3c1,0,1.8,0.8,1.8,1.8v5.7c0,1-0.8,1.8-1.8,1.8h-21.3v21.3c0,5.1,2.9,8,7.5,8c4.2,0,7-3.1,7.1-8.3
	C418,340.2,418.8,339.6,419.7,339.7z M372.2,343.6c-0.7-0.1-1.5,0.2-1.9,0.8c-2.1,3.4-5.9,5.5-10.4,5.5c-7.4,0-12.7-4.9-13.9-12.9
	h32.7c1,0,1.8-0.8,1.8-1.8v-3.2c0-13.2-8.3-22.5-21.3-22.5c-14,0-23.2,11-23.2,25.1c0,14.3,9.5,25,23.9,24.9
	c9.4-0.1,17.2-5.1,20.5-12.8c0.3-0.7-0.1-1.5-0.9-1.6L372.2,343.6z M613.8,343.6l7.3,1.4c0.7,0.1,1.2,0.9,0.9,1.6
	c-3.2,7.7-11,12.8-20.5,12.8c-14.4,0.1-23.9-10.6-23.9-24.9c0-14.1,9.2-25.1,23.2-25.1c13,0,21.3,9.3,21.3,22.5v3.2
	c0,1-0.8,1.8-1.8,1.8h-32.7c1.2,8.1,6.5,12.9,13.9,12.9c4.5,0,8.3-2,10.4-5.5C612.4,343.9,613.1,343.5,613.8,343.6z M470.2,328.3
	H463c-0.9,0-1.7-0.7-1.8-1.6c-0.4-5-2.9-7.4-6.9-7.4c-5,0-8.7,4.3-8.7,12.7v24.2c0,1-0.8,1.8-1.8,1.8h-7.1c-1,0-1.8-0.8-1.8-1.8
	v-43.5c0-1,0.8-1.8,1.8-1.8h7.1c1,0,1.8,0.8,1.8,1.8v2.7c2.6-3.7,6.7-6,12.1-6c8.2,0,13.9,5.3,14.2,17.1
	C472,327.5,471.2,328.3,470.2,328.3z M496.5,309.5c12.9,0,19.5,6.8,19.5,17v29.8c0,1-0.8,1.8-1.8,1.8h-6.4c-1,0-1.8-0.8-1.8-1.8
	v-3.7c-2,3.6-6.3,6.9-12.8,6.9c-11,0-16-7.4-16-14c0-9.3,6.3-14.1,17.9-16l10.9-1.8v-1.7c0-4.1-3.1-7.4-9.2-7.4
	c-5.8,0-9.1,3.2-9.4,8.2c-0.1,0.9-0.8,1.7-1.8,1.7h-6.4c-1,0-1.8-0.8-1.8-1.7C477.4,315.2,486.5,309.5,496.5,309.5z M278.4,328.3
	h-7.1c-0.9,0-1.7-0.7-1.8-1.6c-0.4-5-2.9-7.4-6.9-7.4c-5,0-8.7,4.3-8.7,12.7v24.2c0,1-0.8,1.8-1.8,1.8H245c-1,0-1.8-0.8-1.8-1.8
	v-43.5c0-1,0.8-1.8,1.8-1.8h7.1c1,0,1.8,0.8,1.8,1.8v2.7c2.6-3.7,6.7-6,12.1-6c8.2,0,13.9,5.3,14.2,17.1
	C280.2,327.5,279.4,328.3,278.4,328.3z M77,248c0-2.2,2.3-3.5,4.2-2.4l17.3,10c1.7,1,2.8,2.9,2.8,4.9v16c0,8.4-4.5,16.1-11.7,20.3
	l-33.7,19.5c-5.8,3.4-9.4,9.6-9.4,16.3V345c0,2.2-2.3,3.5-4.2,2.4l-17.3-10c-1.7-1-2.8-2.9-2.8-4.9v-11.4c0-8.4,4.5-16.1,11.7-20.3
	l33.7-19.5c5.8-3.4,9.4-9.6,9.4-16.3V248z M116.9,302.3c1.7-1,3.9-1,5.6,0l17.3,10c1.9,1.1,1.9,3.8,0,4.9L98.6,341
	c-5.8,3.4-9.4,9.6-9.4,16.3v12.4c0,2.2-2.3,3.5-4.2,2.4l-17.3-10c-1.7-1-2.8-2.9-2.8-4.9v-11.4c0-8.4,4.5-16.1,11.7-20.3
	L116.9,302.3z M131.1,343.3c1.7-1,3.9-1,5.6,0l17.3,10c1.9,1.1,1.9,3.8,0,4.9l-12.8,7.4c-5.8,3.4-9.4,9.6-9.4,16.3v12.4
	c0,2.2-2.3,3.5-4.2,2.4l-17.3-10c-1.7-1-2.8-2.9-2.8-4.9v-11.4c0-8.4,4.5-16.1,11.7-20.3L131.1,343.3z"/>
<path class="st1" d="M560.3,334.5c0-8.4-5.4-14.7-13.3-14.7c-8,0-13.5,6.2-13.5,14.7s5.4,14.6,13.5,14.6
	C554.8,349.1,560.3,343,560.3,334.5z M308.3,318.8c6.9,0,11.5,4.5,11.7,9.9h-24.4C297.2,322.8,301.9,318.8,308.3,318.8z
	 M359.3,318.8c6.9,0,11.5,4.5,11.7,9.9h-24.4C348.2,322.8,353,318.8,359.3,318.8z M600.9,318.8c6.9,0,11.5,4.5,11.7,9.9h-24.4
	C589.8,322.8,594.6,318.8,600.9,318.8z M506.1,338.2c0,7.1-4.5,11.7-10.7,11.7c-4.9,0-8-2.2-8-5.6c0-4.3,4.5-5.8,9.3-6.7l9.3-1.6
	V338.2z"/>
</svg>
