<svg id="LOGOS" xmlns="http://www.w3.org/2000/svg" viewBox="0 0 1083.04 555.67"><title>STARLING PORTRAIT LOGO FOR WHITE BACKGROUND</title><circle cx="540.47" cy="187.18" r="187.18" style="fill:#7433ff"/><path d="M593.31,333.55H616.2a89.74,89.74,0,0,1,89.74-89.74v-22.9A112.63,112.63,0,0,0,593.31,333.55Z" transform="translate(-109.17 -146.73)" style="fill:#fff"/><path d="M706,333.55h-22.9a89.77,89.77,0,0,1-89.77,89.77v22.91A112.67,112.67,0,0,0,706,333.55Z" transform="translate(-109.17 -146.73)" style="fill:#fff"/><path d="M156.72,649a39.53,39.53,0,0,0-9-4.24,32,32,0,0,0-9.81-1.51,24.88,24.88,0,0,0-6.13.7,15.08,15.08,0,0,0-4.76,2,9.78,9.78,0,0,0-3.09,3.16,7.87,7.87,0,0,0-1.1,4.14,6.46,6.46,0,0,0,1,3.59,7.64,7.64,0,0,0,2.75,2.51,17.48,17.48,0,0,0,4.38,1.7,55,55,0,0,0,5.84,1.15l4.64.63a50.29,50.29,0,0,1,8,1.77,24.17,24.17,0,0,1,6.92,3.35,16.57,16.57,0,0,1,4.89,5.41,15.89,15.89,0,0,1,1.84,7.9,18.46,18.46,0,0,1-2.16,9.05A19.87,19.87,0,0,1,155,697a27.24,27.24,0,0,1-8.54,4.07,37.62,37.62,0,0,1-10.32,1.38,45.85,45.85,0,0,1-7.06-.57,48.65,48.65,0,0,1-7.23-1.7,43.12,43.12,0,0,1-6.83-2.8,29.54,29.54,0,0,1-5.84-3.93l5.89-8.61a22.1,22.1,0,0,0,4.14,2.92,36.81,36.81,0,0,0,11,3.9,33.17,33.17,0,0,0,5.91.55,26.65,26.65,0,0,0,6.15-.67,16.7,16.7,0,0,0,5-2,10.56,10.56,0,0,0,3.33-3.13,7.37,7.37,0,0,0,1.22-4.14,6.5,6.5,0,0,0-3.86-6q-3.85-2.06-11.23-3.06l-5.21-.72a41.54,41.54,0,0,1-7.31-1.72,21.41,21.41,0,0,1-6.36-3.38,16.21,16.21,0,0,1-4.5-5.46,17,17,0,0,1-1.7-8,18.65,18.65,0,0,1,2.08-8.93,19.53,19.53,0,0,1,5.67-6.56,26.39,26.39,0,0,1,8.41-4.05A37,37,0,0,1,138,633,42.09,42.09,0,0,1,151.23,635a45.15,45.15,0,0,1,11,5.29Zm91.69-4.6H226.72v56.79H215.9V644.42H194.21V634.18h54.2Zm88.86,56.79H325.64L319,684.11H288.67l-6.6,17.1H270.81l26.48-67h13.5Zm-44.62-27.34h22.41L303.85,645Zm106.67-39.69q11.64,0,17.7,5t6.05,14.41a18.69,18.69,0,0,1-1.58,7.78,17.28,17.28,0,0,1-4.47,6,21.49,21.49,0,0,1-7,4,31.15,31.15,0,0,1-9.27,1.66l22.07,28.2h-13.4L388,673h-5.45v28.2H371.74v-67Zm-16.75,10.15v18.86H399q6.56,0,9.67-2.37t3.11-7.25q0-4.79-3.18-7t-9.6-2.22ZM509.3,701.21H461.38v-67H472.2V691h37.1Zm45.68,0H544.16v-67H555Zm100.16,0h-9.76L608,652.71l-.05,48.5H597.11v-67h9.77l37.44,48.5v-48.5h10.82Zm73.59-68.28a36.92,36.92,0,0,1,14.7,2.85,31.72,31.72,0,0,1,11.26,8l-8,7.71a22.63,22.63,0,0,0-7.76-6,23.65,23.65,0,0,0-10.25-2.18,25,25,0,0,0-9.48,1.77,22,22,0,0,0-7.51,5,23,23,0,0,0-5,7.71,26.48,26.48,0,0,0-1.79,9.91,26.84,26.84,0,0,0,1.77,9.91,22.72,22.72,0,0,0,4.91,7.71,22,22,0,0,0,7.37,5,23.67,23.67,0,0,0,9.22,1.77q9.18,0,14.5-4.52t6.61-12.86H731.61v-10H761.1c0,.44.06.88.07,1.29s0,.85,0,1.29A41.06,41.06,0,0,1,759,680.84,33,33,0,0,1,752.51,692a30.49,30.49,0,0,1-10.37,7.59,33,33,0,0,1-13.88,2.8,36.64,36.64,0,0,1-8.57-1,36.15,36.15,0,0,1-8.1-3,34.66,34.66,0,0,1-7.13-4.93,31.2,31.2,0,0,1-5.7-6.8A34.32,34.32,0,0,1,695,678a37.22,37.22,0,0,1-1.36-10.34,36.19,36.19,0,0,1,2.63-13.93,32.63,32.63,0,0,1,18.41-18.24A37.25,37.25,0,0,1,728.73,632.93Zm146.75,1.25a47.25,47.25,0,0,1,10,1,23.31,23.31,0,0,1,7.95,3.16,15.6,15.6,0,0,1,5.27,5.65,17.33,17.33,0,0,1,1.91,8.45,15.21,15.21,0,0,1-3,9.1,14.39,14.39,0,0,1-3.27,3.2,13.38,13.38,0,0,1-4.1,2,17.69,17.69,0,0,1,4.55,2.1,16.16,16.16,0,0,1,6.37,7.88,15,15,0,0,1,1,5.39,19.47,19.47,0,0,1-1.78,8.64,15.52,15.52,0,0,1-5.05,5.94,23,23,0,0,1-7.9,3.44A43.84,43.84,0,0,1,877,701.21H849.49v-67Zm-15.17,10.15v18h14.84a45.63,45.63,0,0,0,5.36-.31A13.9,13.9,0,0,0,885,660.8a7.63,7.63,0,0,0,3.09-2.76,8.87,8.87,0,0,0,1.15-4.81,8.46,8.46,0,0,0-1.15-4.64,7.47,7.47,0,0,0-3.12-2.71,14.6,14.6,0,0,0-4.52-1.24,44.18,44.18,0,0,0-5.39-.31Zm0,28.15v18.58h16.23a39.69,39.69,0,0,0,5.82-.39,13,13,0,0,0,4.47-1.41,7.23,7.23,0,0,0,2.9-2.85,9.63,9.63,0,0,0,1-4.74,9.29,9.29,0,0,0-1-4.62,7.24,7.24,0,0,0-2.9-2.8,13.66,13.66,0,0,0-4.47-1.39,41.21,41.21,0,0,0-5.82-.38Zm138.61,28.73H987.28l-6.6-17.1H950.32l-6.61,17.1H932.46l26.48-67h13.5ZM954.3,673.87h22.4L965.5,645Zm137.12,27.34h-9.76l-37.4-48.5,0,48.5h-10.82v-67h9.77l37.44,48.5v-48.5h10.82Zm59.42-28.59h-6.46v28.59h-10.82v-67h10.82v28.2H1151l25.18-28.2h14L1160,666.88l32.22,34.33h-14.7Z" transform="translate(-109.17 -146.73)" style="fill:#6a737b"/></svg>